<svg xmlns="http://www.w3.org/2000/svg" id="Livello_2" data-name="Livello 2" viewBox="0 0 314.65 22.68"><defs><style>      .cls-1 {        fill: #000;        stroke-width: 0px;      }    </style></defs><g id="Livello_1-2" data-name="Livello 1"><g><path class="cls-1" d="M11.23.03h11.99l11.23,22.62h-8.15l-2.16-3.77h-13.83l-2.15,3.77H0L11.23.03ZM17.76,5.13h-1.08l-3.78,7.89h8.63l-3.77-7.89Z"></path><path class="cls-1" d="M38.28.03h6.98v16.76h15.83v5.86h-22.8V.03Z"></path><path class="cls-1" d="M65.11,22.65V0h24.23v5.86h-17.25v3.9h16.3v5.86h-16.3v7.03h-6.98Z"></path><path class="cls-1" d="M104.08.03h11.99l11.23,22.62h-8.15l-2.16-3.77h-13.83l-2.15,3.77h-8.15L104.08.03ZM110.61,5.13h-1.08l-3.78,7.89h8.63l-3.77-7.89Z"></path><path class="cls-1" d="M147.97,0h17.07c3.72,0,6.17.45,7.36,1.36,1.48,1.12,2.22,3.52,2.22,7.19s-.73,6.04-2.19,7.16c-1.21.93-3.67,1.39-7.39,1.39h-10.09v5.54h-6.98V0ZM154.95,11.24h10.09c.82,0,1.44-.18,1.87-.53.51-.44.77-1.16.77-2.16s-.26-1.76-.77-2.18c-.4-.34-1.02-.51-1.87-.51h-10.09v5.38Z"></path><path class="cls-1" d="M209.75,11.39c0,5.35-.67,8.55-2,9.6-1.44,1.13-5.77,1.69-13,1.69-5.29,0-8.75-.19-10.41-.56-2.07-.47-3.38-1.49-3.93-3.07-.42-1.21-.63-3.76-.63-7.66,0-5.35.66-8.55,1.97-9.59,1.44-1.15,5.77-1.73,13-1.73s11.53.56,12.97,1.7c1.35,1.07,2.03,4.27,2.03,9.62ZM186.77,11.39c0,2.81.34,4.44,1.01,4.89.66.47,2.98.71,6.98.71s6.36-.23,7.04-.71c.66-.45.98-2.08.98-4.89s-.33-4.48-.98-4.96c-.66-.45-2.99-.68-7.01-.68s-6.35.23-7.01.68c-.68.47-1.01,2.12-1.01,4.96Z"></path><path class="cls-1" d="M227.49.07l5.96,12.69c.07.15.15.63.26,1.45.09.84.18,1.27.29,1.27.08,0,.17-.25.26-.76.06-.48.16-1.14.29-1.96L240.5.07h11.89v22.61h-6.97V6.87c0-.27.05-.61.15-1.01.11-.4.16-.64.16-.73,0-.17-.06-.25-.19-.25-.08,0-.19.12-.32.35-.13.25-.24.48-.32.7l-8.05,16.75h-5.71l-8.69-16.82c-.12-.27-.24-.52-.35-.73-.1-.21-.2-.32-.29-.32-.12,0-.19.07-.19.22,0,.02.07.37.22,1.04.07.29.1.54.1.73v15.87h-6.98V.07h12.53Z"></path><path class="cls-1" d="M258.76,0h17.07c3.72,0,6.17.45,7.36,1.36,1.48,1.12,2.22,3.52,2.22,7.19s-.73,6.04-2.19,7.16c-1.21.93-3.67,1.39-7.39,1.39h-10.09v5.54h-6.98V0ZM265.73,11.24h10.09c.82,0,1.44-.18,1.87-.53.51-.44.77-1.16.77-2.16s-.26-1.76-.77-2.18c-.4-.34-1.02-.51-1.87-.51h-10.09v5.38Z"></path><path class="cls-1" d="M290.22,22.65V0h24.42v5.48h-17.44v3.13h16.65v5.45h-16.65v3.1h17.44v5.48h-24.42Z"></path></g></g></svg>