<svg xmlns="http://www.w3.org/2000/svg" id="Livello_1" viewBox="0 0 525.1 136.3"><defs><style>      .st0 {        fill: #fff;      }    </style></defs><g><path class="st0" d="M14.3,90.2v45.8H.3v-45.8h14Z"></path><path class="st0" d="M44.1,90.2l22.9,34.2h.7v-34.2h14v45.8h-23.2l-23-34.2h-.7v34.2h-14v-45.8h23.4Z"></path><path class="st0" d="M88.1,90.2h31.6c11.2,0,12.7,0,16.4.9,4.3.9,7.2,3.5,8.5,7.8,1,3.2,1.2,6.2,1.2,13.6,0,12-1,16.6-4.2,19.7-3.3,3.2-7.2,3.8-22,3.8h-31.6v-45.8ZM119.8,124.3c12.1,0,12.9-.7,12.9-11.1s-.5-8.2-1.8-9.7c-1.4-1.7-3.1-1.9-11.3-1.9h-17.5v22.7h17.7Z"></path><path class="st0" d="M239.7,118.5c15,0,15.3.8,15.3,4s-.2,3.3-11.4,3.3-14.1,0-14.1-4.6h-13.9c0,14.8,4.4,14.8,26.7,14.8s26.8,0,26.8-14.4-3.8-13.8-24.1-13.8-15.3-.6-15.3-4,.2-3.3,11.4-3.3,14.1,0,14.1,4.6h13.9c0-14.8-4.4-14.8-26.7-14.8s-26.8,0-26.8,14.4,4.6,13.8,24.2,13.8Z"></path><path class="st0" d="M328.4,90.2v11.7h-19.5v34.2h-14v-34.2h-19.5v-11.7h53Z"></path><path class="st0" d="M334.8,90.2h32.2q15.1,0,17.9,1.8c3.3,2.1,4.3,5.2,4.3,13.1s-.7,9.2-2.8,11.1c-1.3,1.1-2.6,1.6-5.3,2.1,6.8.8,8.4,2.9,8.1,13.5v4.3h-14v-2.4c0-5.2-.3-6.8-1.3-8-.9-1.1-1.5-1.2-7-1.2h-18.2v11.6h-14v-45.8ZM366.9,112.9c6.6-.1,5.9-.1,6.8-.7,1.2-.8,1.6-2.1,1.6-5.1s-.5-4.3-1.8-4.9c-1-.5-.5-.5-6.6-.6h-18.1v11.3h18.1Z"></path><path class="st0" d="M409.7,90.2v45.8h-14v-45.8h14Z"></path><path class="st0" d="M152.4,120.1c0-1.9-.1-1.9-.2-9.6v-20.4h14v20.4c.1,7.2-.7,12.3,14.4,12.3,15.1,0,14.3-5.1,14.4-12.3v-20.4h14v20.4c0,7.7-.2,7.7-.2,9.6,0,15.9-16.5,15.9-28.2,15.9-11.7,0-28.2,0-28.2-15.9Z"></path><path class="st0" d="M464.8,90.2v10.8h-34.7v6.7h32.7v10.1h-32.7v7.3h34.7v11h-48.7v-45.8h48.7Z"></path><path class="st0" d="M495.4,118.5c15,0,15.3.8,15.3,4s-.2,3.3-11.4,3.3-14.1,0-14.1-4.6h-13.9c0,14.8,4.4,14.8,26.7,14.8s26.8,0,26.8-14.4-3.8-13.8-24.1-13.8-15.3-.6-15.3-4,.2-3.3,11.4-3.3,14.1,0,14.1,4.6h13.9c0-14.8-4.4-14.8-26.7-14.8s-26.8,0-26.8,14.4,4.6,13.8,24.2,13.8Z"></path></g><g><path class="st0" d="M41.8.3l22.3,51.1L86.6.3h41.3v78.8h-24V20.1h-1.8l-28.3,58.9h-19.1L26.4,20.1h-2v58.9H.3V.3h41.5Z"></path><path class="st0" d="M221.2,65.7h-49.7l-6.4,13.3h-26.2L178.7.3h35.6l39.4,78.8h-26l-6.4-13.3ZM198.7,18.6h-4.5l-14.5,29.9h33.6l-14.5-29.9Z"></path><path class="st0" d="M322.7.3v20.1h-33.5v58.7h-24V20.4h-33.5V.3h91Z"></path><path class="st0" d="M417.9.3v18.5h-59.6v11.5h56.2v17.4h-56.2v12.5h59.6v18.9h-83.7V.3h83.7Z"></path><path class="st0" d="M454.1,44.3c.3,7.8,1.3,11.3,3.5,13.1,2.4,1.9,5.5,2.4,19.7,2.4,5.2,0,12-.2,15.6-.5,5-.3,6.8-.9,7.7-2.2.9-1.3,1.1-2.3,1.4-6.8h22.9v3.8c0,12.6-2.5,18.2-9.4,21.6-5.1,2.5-12.3,3.2-31.6,3.2-38.6,0-47.1-1.9-51.4-11.6-1.6-3.8-2.2-9.8-2.3-23.1v-9.4c.1-13.3.7-19.2,2.3-23.1,4.3-9.6,12.9-11.6,51.4-11.6s26.5.7,31.6,3.2c6.9,3.3,9.4,8.9,9.4,21.6v3.8h-22.9c-.2-4.5-.5-5.5-1.4-6.8-.9-1.3-2.7-1.8-7.7-2.2-3.6-.2-10.4-.5-15.6-.5-14.2,0-17.3.5-19.7,2.4-2.3,1.8-3.3,5.3-3.5,13.1v4.7s0,4.7,0,4.7Z"></path></g></svg>